<svg xmlns="http://www.w3.org/2000/svg" id="Layer_1" data-name="Layer 1" xmlns:xlink="http://www.w3.org/1999/xlink" viewBox="0 0 515.81 133.79">
  <defs>
    <style>
      .b-bottom { fill: url(#Earthtone_27-4); stroke: url(#Earthtone_27-4); }
      .b-middle-bottom { fill: url(#Earthtone_28-4); stroke: url(#Earthtone_28-4); }
      .b-middle-top { fill: url(#Earthtone_29-4); stroke: url(#Earthtone_29-4); }
      .b-top { fill: url(#Earthtone_30-4); stroke: url(#Earthtone_30-4); }

      .u-bottom { fill: url(#Earthtone_27); stroke: url(#Earthtone_27); }
      .u-middle-bottom { fill: url(#Earthtone_28); stroke: url(#Earthtone_28); }
      .u-middle-top { fill: url(#Earthtone_29); stroke: url(#Earthtone_29); }
      .u-top { fill: url(#Earthtone_30); stroke: url(#Earthtone_30); }

      .s-bottom { fill: url(#Earthtone_27-2); stroke: url(#Earthtone_27-2); }
      .s-middle-bottom { fill: url(#Earthtone_28-2); stroke: url(#Earthtone_28-2); }
      .s-middle-top { fill: url(#Earthtone_29-2); stroke: url(#Earthtone_29-2); }
      .s-top { fill: url(#Earthtone_30-2); stroke: url(#Earthtone_30-2); }

      .y-bottom { fill: url(#Earthtone_27-3); stroke: url(#Earthtone_27-3); }
      .y-middle-bottom { fill: url(#Earthtone_28-3); stroke: url(#Earthtone_28-3); }
      .y-middle-top { fill: url(#Earthtone_29-3); stroke: url(#Earthtone_29-3); }
      .y-top { fill: url(#Earthtone_30-3); stroke: url(#Earthtone_30-3); }

      path { stroke-width: 0.3 }
    </style>
    <linearGradient id="Earthtone_27" x1="132.85" x2="219.62" y1="100.33" y2="100.33" gradientUnits="userSpaceOnUse">
      <stop offset="0" stop-color="#b2c5cf"/>
      <stop offset=".54" stop-color="#7894a2"/>
      <stop offset="1" stop-color="#436676"/>
    </linearGradient>
    <linearGradient id="Earthtone_28" x1="132.85" x2="248.53" y1="75.28" y2="75.28" gradientUnits="userSpaceOnUse">
      <stop offset="0" stop-color="#88a2b0"/>
      <stop offset=".54" stop-color="#507281"/>
      <stop offset="1" stop-color="#1e4453"/>
    </linearGradient>
    <linearGradient id="Earthtone_29" x1="132.85" x2="248.53" y1="58.55" y2="58.55" gradientUnits="userSpaceOnUse">
      <stop offset="0" stop-color="#698991"/>
      <stop offset=".54" stop-color="#335c64"/>
      <stop offset="1" stop-color="#01373b"/>
    </linearGradient>
    <linearGradient id="Earthtone_30" x1="161.76" x2="248.53" y1="41.85" y2="41.85" gradientUnits="userSpaceOnUse">
      <stop offset="0" stop-color="#4a6876"/>
      <stop offset=".54" stop-color="#093542"/>
      <stop offset="1" stop-color="#000315"/>
    </linearGradient>
    <linearGradient id="Earthtone_27-2" x1="266.49" x2="353.26" y1="100.29" y2="100.29" xlink:href="#Earthtone_27"/>
    <linearGradient id="Earthtone_28-2" x1="266.49" x2="382.17" y1="75.24" y2="75.24" xlink:href="#Earthtone_28"/>
    <linearGradient id="Earthtone_29-2" x1="266.49" x2="382.17" y1="58.52" y2="58.52" xlink:href="#Earthtone_29"/>
    <linearGradient id="Earthtone_30-2" x1="295.4" x2="382.17" y1="33.52" y2="33.52" xlink:href="#Earthtone_30"/>
    <linearGradient id="Earthtone_27-3" x1="400.13" x2="486.9" y1="100.29" y2="100.29" xlink:href="#Earthtone_27"/>
    <linearGradient id="Earthtone_28-3" x1="400.13" x2="515.81" y1="75.24" y2="75.24" xlink:href="#Earthtone_28"/>
    <linearGradient id="Earthtone_29-3" x1="400.13" x2="515.81" y1="58.51" y2="58.51" xlink:href="#Earthtone_29"/>
    <linearGradient id="Earthtone_30-3" x1="429.04" x2="515.81" y1="41.81" y2="41.81" xlink:href="#Earthtone_30"/>
    <linearGradient id="Earthtone_27-4" x1="0" x2="86.77" y1="100.33" y2="100.33" xlink:href="#Earthtone_27"/>
    <linearGradient id="Earthtone_28-4" x1="0" x2="115.69" y1="75.14" y2="75.14" xlink:href="#Earthtone_28"/>
    <linearGradient id="Earthtone_29-4" x1="0" x2="115.69" y1="58.41" y2="58.41" xlink:href="#Earthtone_29"/>
    <linearGradient id="Earthtone_30-4" x1="28.92" x2="115.69" y1="33.41" y2="33.41" xlink:href="#Earthtone_30"/>
  </defs>

  <g id="b">
    <path d="M0 66.86l86.77 50.16-28.93 16.77L0 100.4V66.86z" class="b-bottom"/>
    <path d="M0 33.4l115.69 66.79-28.92 16.69L0 66.72V33.4z" class="b-middle-bottom"/>
    <path d="M28.91 16.63l86.78 50.16v33.4L0 33.4l28.91-16.77z" class="b-middle-top"/>
    <path d="M57.84 0v66.83l57.85-.04-86.78-50.16L57.84 0z" class="b-top"/>
  </g>

  <g id="u">
    <path d="M132.85 66.86l86.77 50.16-28.93 16.77-57.84-33.39V66.86z" class="u-bottom"/>
    <path d="M132.85 33.54l115.68 66.79-28.91 16.69-86.77-50.16V33.54z" class="u-middle-bottom"/>
    <path d="M161.76 16.77l86.77 50.16v33.4L132.85 33.54l28.91-16.77z" class="u-middle-top"/>
    <path d="M190.51 66.83l58.02-33.29v33.39l-86.77-50.16 28.75 50.06z" class="u-top"/>
  </g>

  <g id="s">
    <path d="M266.49 66.83l86.77 50.16-28.93 16.77V66.93l-57.84-.1z" class="s-bottom"/>
    <path d="M266.49 33.5l115.68 66.79-28.91 16.7-86.77-50.16V33.5z" class="s-middle-bottom"/>
    <path d="M295.4 16.74l86.77 50.16v33.39L266.49 33.5l28.91-16.76z" class="s-middle-top"/>
    <path d="M324.33.11v66.82l57.84-.03-86.77-50.16L324.33.11z" class="s-top"/>
  </g>

  <g id="y">
    <path d="M400.13 66.83l86.77 50.15-28.93 16.77-14.46-41.84-43.38-25.08z" class="y-bottom"/>
    <path d="M400.13 33.5l115.68 66.79-28.91 16.69-86.77-50.15V33.5z" class="y-middle-bottom"/>
    <path d="M429.04 16.74l86.77 50.15v33.4L400.13 33.5l28.91-16.76z" class="y-middle-top"/>
    <path d="M457.79 66.79l58.02-33.29v33.39l-86.77-50.15 28.75 50.05z" class="y-top"/>
  </g>
</svg>